<?xml version="1.0" standalone="no"?>
<!DOCTYPE svg PUBLIC "-//W3C//DTD SVG 20010904//EN"
 "http://www.w3.org/TR/2001/REC-SVG-20010904/DTD/svg10.dtd">
<svg version="1.0" xmlns="http://www.w3.org/2000/svg"
 width="300.000000pt" height="153.000000pt" viewBox="0 0 300.000000 153.000000"
 preserveAspectRatio="xMidYMid meet">
<metadata>
Created by potrace 1.10, written by Peter Selinger 2001-2011
</metadata>
<g transform="translate(0.000000,153.000000) scale(0.100000,-0.100000)"
fill="#000000" stroke="none">
<path d="M1280 1515 c0 -18 12 -19 28 -3 10 10 17 10 32 0 26 -16 37 -15 44 3
4 12 -5 15 -49 15 -42 0 -55 -3 -55 -15z"/>
<path d="M1427 1516 c-3 -8 2 -17 11 -21 9 -3 18 -1 20 4 2 6 13 11 25 12 12
0 31 4 42 9 14 6 4 9 -36 9 -40 1 -58 -3 -62 -13z"/>
<path d="M1627 1510 c-8 -11 -17 -17 -20 -13 -4 3 -7 3 -7 -1 0 -4 6 -14 14
-21 12 -12 15 -12 22 3 4 9 6 22 5 29 -1 6 6 14 16 16 16 4 16 5 1 6 -9 0 -23
-8 -31 -19z"/>
<path d="M1802 1522 c-9 -6 -6 -12 12 -20 20 -9 25 -8 30 4 3 9 6 18 6 20 0 7
-34 4 -48 -4z"/>
<path d="M1963 1523 c-7 -2 -13 -11 -13 -18 0 -7 -3 -15 -7 -17 -12 -5 -63
-81 -58 -86 2 -2 19 5 38 17 23 14 37 33 46 60 6 22 19 42 29 44 14 4 13 5 -3
5 -11 0 -26 -2 -32 -5z"/>
<path d="M2198 1519 c-6 -4 -9 -11 -7 -17 3 -7 19 -4 44 8 l40 19 -33 -2 c-18
-1 -38 -4 -44 -8z"/>
<path d="M2250 1483 c-29 -10 -49 -12 -60 -6 -16 11 -40 6 -40 -7 0 -4 9 -10
20 -13 14 -4 18 -10 13 -23 -5 -14 2 -12 29 9 19 15 42 27 50 27 9 0 21 7 28
15 15 18 16 18 -40 -2z"/>
<path d="M2945 1449 c-22 -12 -87 -37 -143 -55 -81 -26 -108 -31 -124 -23 -14
7 -28 7 -50 0 -40 -14 -38 -15 -38 14 0 34 -14 31 -53 -8 -17 -18 -49 -45 -69
-61 -21 -15 -40 -36 -43 -46 -3 -11 -21 -28 -39 -39 -18 -11 -45 -32 -60 -46
-15 -14 -31 -25 -36 -25 -5 0 -12 -9 -15 -20 -3 -11 -11 -20 -16 -20 -14 0
-78 -71 -85 -94 -8 -23 -44 -66 -64 -75 -8 -3 -53 -32 -100 -63 -75 -50 -120
-71 -260 -124 -19 -7 -89 -18 -154 -24 -65 -7 -128 -15 -140 -20 -19 -7 -18
-8 10 -14 18 -4 85 -13 150 -21 66 -7 131 -17 147 -20 15 -4 27 -3 27 2 0 12
-67 33 -104 33 -42 0 -30 18 17 25 58 9 80 16 73 23 -4 3 8 11 26 18 18 7 60
22 93 35 94 35 247 139 286 194 45 64 110 129 197 198 40 32 72 61 72 66 0 4
24 28 54 54 l54 46 67 -8 c57 -6 108 -3 160 12 86 25 156 51 166 63 6 8 20 14
30 14 11 0 19 7 19 15 0 20 -8 19 -55 -6z"/>
<path d="M0 1386 c0 -7 19 -26 43 -43 23 -18 63 -48 89 -67 26 -20 50 -36 53
-36 3 0 13 -7 23 -15 88 -78 184 -133 245 -140 30 -4 31 -3 13 10 -31 23 186
18 234 -5 23 -11 42 -15 55 -9 40 15 69 8 119 -29 28 -21 58 -42 66 -47 13 -8
13 -7 0 10 -65 82 -132 115 -181 89 -26 -13 -32 -13 -56 3 -31 21 -159 27
-232 12 -36 -8 -51 -6 -90 12 -25 13 -48 25 -51 28 -10 12 -127 99 -185 138
-34 23 -67 48 -74 57 -20 24 -71 47 -71 32z"/>
<path d="M1795 1348 c-4 -18 -11 -38 -16 -43 -4 -6 -4 -17 1 -25 8 -13 9 -12
13 0 2 8 9 31 16 51 13 43 14 49 2 49 -5 0 -13 -15 -16 -32z"/>
<path d="M2980 1240 c-13 -9 -13 -11 0 -19 16 -11 15 -12 -20 -28 -22 -10 -22
-12 -5 -12 32 -1 47 14 43 42 -2 21 -6 24 -18 17z"/>
<path d="M2926 1083 c-6 -13 36 -26 58 -17 9 3 16 12 16 18 0 16 -68 15 -74
-1z"/>
<path d="M954 1054 c-18 -15 -18 -15 5 -10 22 5 39 -2 154 -66 18 -10 42 -18
54 -18 15 0 32 -15 53 -44 43 -63 56 -67 25 -8 -33 64 -44 72 -97 77 -27 3
-48 12 -58 24 -8 11 -38 29 -66 40 -47 18 -54 18 -70 5z"/>
<path d="M2935 935 c1 -14 6 -29 10 -33 4 -4 4 3 1 16 -8 24 -4 27 24 12 11
-6 21 -6 24 -1 5 7 -42 31 -60 31 -1 0 -1 -11 1 -25z"/>
<path d="M2844 904 c3 -8 2 -13 -2 -10 -4 2 -14 1 -20 -3 -20 -12 3 -61 28
-61 18 0 19 2 8 20 -7 11 -17 20 -22 20 -6 0 -1 6 9 14 11 8 24 12 30 8 5 -3
4 2 -4 11 -17 21 -35 22 -27 1z"/>
<path d="M1397 903 c12 -2 34 -18 48 -35 l26 -31 -7 29 c-9 37 -6 35 -51 39
-21 1 -28 1 -16 -2z"/>
<path d="M2895 874 c-19 -14 -19 -14 1 -14 10 0 30 -3 43 -7 17 -4 22 -3 17 5
-14 24 -41 31 -61 16z"/>
<path d="M2690 865 c-7 -8 -16 -13 -20 -10 -5 3 -12 0 -16 -6 -3 -6 -1 -15 6
-19 9 -5 8 -9 -3 -13 -17 -6 -50 -67 -36 -67 5 0 9 5 9 11 0 6 6 9 13 6 8 -3
20 -1 28 3 11 7 10 10 -4 16 -19 7 -23 26 -4 22 16 -3 57 20 57 33 0 6 -4 8
-9 5 -5 -4 -7 3 -4 14 6 24 0 26 -17 5z"/>
<path d="M2773 815 c-17 -19 -16 -26 1 -19 8 3 17 1 21 -5 3 -6 13 -11 21 -11
12 0 12 4 -3 25 -21 28 -24 29 -40 10z"/>
<path d="M1487 809 c6 -8 26 -23 45 -33 29 -17 31 -18 19 -2 -8 9 -28 24 -45
33 -24 12 -28 13 -19 2z"/>
<path d="M2438 814 c-5 -4 -8 -23 -8 -43 0 -25 3 -32 11 -24 6 6 9 25 7 43 -2
17 -6 28 -10 24z"/>
<path d="M2500 785 c0 -14 -3 -15 -14 -6 -11 9 -15 8 -20 -5 -8 -22 5 -39 31
-40 18 0 21 4 18 29 -4 33 -15 49 -15 22z"/>
<path d="M2251 758 c-1 -10 -4 -18 -9 -18 -4 0 -13 -18 -20 -41 -7 -22 -22
-60 -34 -85 -21 -45 -21 -74 0 -31 24 49 52 116 52 126 0 6 5 11 10 11 6 0 9
-3 8 -7 -3 -7 11 -17 13 -10 0 1 -4 18 -9 37 -6 19 -11 27 -11 18z"/>
<path d="M2354 757 c-6 -7 -13 -26 -17 -42 l-5 -30 24 30 c23 29 31 55 17 55
-5 -1 -13 -6 -19 -13z"/>
<path d="M162 701 c-18 -16 -39 -31 -47 -35 -8 -3 -15 -10 -15 -16 0 -5 -11
-10 -25 -10 -14 0 -25 -4 -25 -9 0 -10 48 -2 56 10 3 5 14 9 25 9 10 0 18 6
16 13 -1 7 6 11 18 10 11 -1 14 0 7 3 -8 4 -5 11 10 24 13 10 20 21 17 24 -3
4 -20 -7 -37 -23z"/>
<path d="M1099 716 c23 -13 23 -14 5 -19 -12 -3 -8 -5 13 -6 35 -1 53 16 32
30 -8 5 -27 9 -44 8 l-30 0 24 -13z"/>
<path d="M407 680 c-19 -33 -23 -48 -16 -62 12 -22 31 -24 23 -3 -5 11 -2 13
10 9 9 -3 16 -2 16 4 0 6 -6 12 -12 15 -10 3 -10 9 1 29 24 47 5 54 -22 8z"/>
<path d="M694 704 c16 -39 18 -54 6 -54 -6 0 -14 9 -17 20 -3 12 -13 20 -27
19 -14 0 -16 -2 -6 -6 18 -7 30 -23 30 -42 0 -11 -3 -11 -17 0 -15 12 -16 12
-10 -4 4 -10 7 -21 7 -23 0 -3 8 0 19 5 10 6 21 7 25 4 3 -3 6 1 6 11 0 10 5
14 12 10 7 -4 8 -3 4 4 -4 7 -2 12 3 12 20 0 11 25 -16 44 -26 19 -26 19 -19
0z"/>
<path d="M2090 687 c0 -8 -7 -20 -15 -27 -8 -7 -14 -24 -14 -39 1 -20 3 -21 6
-7 7 29 30 49 36 33 3 -6 6 0 6 15 1 15 -3 30 -9 33 -5 3 -10 0 -10 -8z"/>
<path d="M2134 665 c2 -21 8 -41 13 -42 14 -5 22 42 12 59 -7 10 -9 10 -10 -2
0 -10 -3 -9 -9 5 -7 15 -8 10 -6 -20z"/>
<path d="M65 679 c-16 -4 -24 -7 -17 -8 7 0 11 -5 8 -10 -4 -5 3 -7 14 -4 19
5 36 21 29 27 -2 1 -17 -1 -34 -5z"/>
<path d="M447 665 c-4 -10 0 -15 12 -15 25 0 33 -11 19 -27 -15 -18 -4 -27 19
-14 10 6 13 11 7 11 -7 0 -11 7 -10 16 0 9 -9 22 -20 30 -19 13 -22 13 -27 -1z"/>
<path d="M1312 661 c-10 -6 -10 -10 3 -21 12 -10 18 -10 30 0 26 22 -3 41 -33
21z"/>
<path d="M1859 645 c-1 -11 -2 -26 -2 -33 1 -8 -5 -11 -15 -7 -9 3 -13 3 -9
-1 4 -4 2 -13 -4 -20 -7 -9 -7 -18 0 -31 9 -16 10 -15 11 9 0 27 9 30 65 18
29 -6 35 0 23 25 -12 27 -34 35 -24 9 6 -15 4 -15 -10 -3 -9 7 -20 22 -24 34
-9 20 -9 20 -11 0z"/>
<path d="M2001 641 c0 -13 -4 -22 -7 -18 -8 8 -40 -26 -46 -51 -4 -12 -3 -22
0 -22 16 1 42 28 42 44 0 9 5 16 10 16 9 0 14 -14 11 -32 0 -5 4 -8 9 -8 6 0
10 19 10 43 0 28 -3 37 -9 28 -7 -11 -10 -10 -14 5 -4 15 -5 14 -6 -5z"/>
<path d="M183 639 c9 -6 15 -14 12 -19 -3 -5 -1 -11 4 -14 5 -4 13 -2 16 4 9
14 -13 40 -34 40 -14 -1 -14 -2 2 -11z"/>
<path d="M843 634 c-3 -8 -12 -13 -19 -10 -8 3 -13 2 -13 -2 1 -4 1 -20 0 -36
-1 -21 -5 -27 -16 -22 -16 6 -21 -9 -6 -19 10 -5 15 -1 50 45 11 14 23 22 27
18 4 -4 1 -14 -6 -23 -14 -17 -7 -45 12 -45 7 0 19 9 25 20 11 16 9 25 -10 54
-24 39 -35 44 -44 20z"/>
<path d="M752 628 c-8 -10 -4 -16 14 -25 23 -11 25 -10 22 9 -4 26 -21 33 -36
16z"/>
<path d="M1634 613 c-4 -15 -8 -32 -8 -38 -1 -5 -5 -13 -11 -17 -6 -4 -1 -8
10 -9 20 0 20 0 0 -8 -16 -7 -21 -3 -26 18 -6 23 -7 23 -8 4 0 -12 -5 -25 -11
-28 -5 -3 -10 -15 -10 -26 0 -26 46 -27 55 0 4 15 13 18 41 15 34 -3 69 -26
57 -38 -4 -3 -1 -6 5 -6 7 0 12 9 12 20 0 11 6 19 13 18 15 -4 22 51 8 65 -8
8 -11 1 -12 -23 l-2 -35 -7 40 -7 40 -2 -42 c0 -24 -6 -43 -11 -43 -5 0 -9 3
-9 8 3 20 -2 32 -12 26 -8 -4 -7 -9 2 -15 11 -7 10 -9 -3 -9 -13 0 -18 11 -20
52 -2 39 -7 54 -19 56 -11 2 -19 -7 -25 -25z"/>
<path d="M1796 593 c-8 -54 -8 -79 3 -67 11 12 21 104 11 104 -4 0 -10 -17
-14 -37z"/>
<path d="M325 599 c-5 -14 -3 -25 4 -27 6 -2 11 -10 11 -17 0 -8 4 -16 9 -19
9 -6 -2 71 -12 80 -3 3 -8 -5 -12 -17z"/>
<path d="M1330 570 c-1 -8 -2 -22 -1 -31 1 -9 -5 -19 -13 -22 -9 -4 -12 -14
-9 -28 l6 -23 10 25 c9 22 10 22 15 5 2 -11 -3 -25 -12 -32 -14 -10 -14 -13
-1 -24 12 -10 16 -9 21 4 3 9 10 16 15 16 16 0 9 -22 -13 -41 -17 -13 -19 -18
-8 -19 8 0 21 4 29 9 10 6 18 5 25 -4 6 -7 34 -15 61 -18 28 -3 42 -3 32 0
-12 3 -15 8 -8 16 11 14 11 14 11 68 0 24 4 38 10 34 6 -3 10 -1 10 4 0 6 -6
11 -14 11 -19 0 -34 -47 -29 -86 4 -28 2 -31 -21 -31 -14 0 -26 5 -26 11 0 6
-5 4 -10 -4 -8 -13 -10 -12 -10 3 0 9 -5 17 -11 17 -7 0 -9 11 -6 26 4 20 1
25 -12 21 -11 -3 -17 2 -18 15 -1 13 3 18 13 14 8 -3 14 1 14 9 0 8 -3 14 -7
14 -23 -4 -32 4 -36 29 -2 15 -5 20 -7 12z"/>
<path d="M1435 558 c-11 -13 -20 -25 -21 -28 0 -3 -3 -12 -6 -20 -12 -31 -15
-58 -8 -70 12 -19 30 -2 30 28 0 32 14 57 27 49 5 -3 7 10 5 29 -2 19 -5 34
-6 34 -1 0 -10 -10 -21 -22z"/>
<path d="M592 562 c-7 -2 -12 -8 -12 -13 0 -6 5 -7 10 -4 6 3 10 1 10 -5 0 -8
7 -9 18 -5 9 4 37 7 62 6 24 -1 42 1 38 4 -8 8 -111 22 -126 17z"/>
<path d="M1027 549 c-4 -15 -11 -20 -21 -16 -11 5 -16 0 -16 -14 0 -15 5 -18
23 -14 12 3 32 7 45 8 12 1 20 6 18 12 -2 5 -9 9 -15 8 -6 -2 -11 6 -11 17 0
27 -16 26 -23 -1z"/>
<path d="M1505 551 c-3 -6 1 -21 9 -33 9 -12 16 -29 16 -38 0 -12 -2 -12 -9
-2 -7 11 -9 11 -14 -1 -5 -13 6 -15 46 -8 4 0 7 9 7 19 0 15 -2 15 -11 2 -8
-12 -9 -12 -7 5 3 25 -27 71 -37 56z"/>
<path d="M1122 530 c-17 -28 -15 -37 11 -42 19 -4 23 -1 21 16 -1 12 -3 27 -3
34 -1 18 -15 15 -29 -8z"/>
<path d="M1191 528 c0 -10 -6 -18 -13 -18 -6 0 -4 -7 5 -18 10 -10 14 -22 10
-27 -5 -4 -2 -5 5 -1 6 4 12 15 12 24 0 13 2 14 9 4 12 -20 21 7 10 33 -6 17
-8 17 -8 3 -1 -10 -5 -18 -10 -18 -5 0 -12 8 -14 18 -4 16 -5 16 -6 0z"/>
<path d="M617 513 c-8 -7 25 -33 35 -27 4 3 5 11 1 19 -5 16 -25 20 -36 8z"/>
<path d="M1266 512 c-3 -5 -3 -17 0 -26 3 -9 2 -16 -3 -16 -5 0 -9 -9 -9 -20
0 -11 6 -20 12 -20 6 0 17 -7 24 -15 7 -8 18 -15 24 -15 6 0 3 5 -7 11 -13 8
-17 18 -13 37 6 29 -17 82 -28 64z"/>
<path d="M1205 447 c-4 -10 -5 -20 -2 -24 11 -11 37 6 37 24 0 14 -2 15 -9 4
-7 -11 -9 -11 -14 0 -3 11 -7 10 -12 -4z"/>
<path d="M1535 450 c-3 -5 -2 -10 3 -10 6 0 10 -6 9 -12 -1 -40 4 -48 31 -47
22 1 24 2 7 7 -19 7 -25 18 -28 54 -1 20 -12 24 -22 8z"/>
<path d="M1014 438 c-5 -7 -15 -13 -23 -13 -8 0 -16 -6 -18 -12 -7 -19 35 -16
54 3 11 10 12 19 5 26 -7 7 -13 6 -18 -4z"/>
<path d="M1077 433 c-4 -6 -1 -14 5 -17 10 -5 10 -7 1 -12 -25 -11 -12 -24 25
-24 30 1 34 3 20 11 -10 5 -18 17 -18 25 0 8 -4 13 -9 10 -5 -4 -11 -1 -13 6
-3 9 -6 9 -11 1z"/>
<path d="M1830 342 c0 -32 -13 -39 -60 -32 -8 1 -11 -2 -7 -7 5 -4 26 -8 47
-9 l38 0 -5 35 c-8 47 -13 52 -13 13z"/>
<path d="M1120 346 c0 -8 -6 -16 -12 -19 -7 -2 -4 -3 7 -1 11 2 32 4 48 4 17
0 27 5 27 15 0 13 -3 13 -21 3 -17 -10 -23 -10 -26 0 -6 17 -23 15 -23 -2z"/>
<path d="M740 335 c-7 -8 -16 -13 -20 -10 -5 3 -11 1 -15 -5 -3 -6 4 -10 17
-10 13 0 29 9 36 20 14 23 0 27 -18 5z"/>
<path d="M1330 338 c0 -5 -8 -8 -17 -8 -15 0 -16 -2 -3 -10 9 -6 17 -5 21 2 4
6 14 8 23 5 9 -4 26 -3 38 2 20 7 17 9 -19 12 -24 3 -43 1 -43 -3z"/>
<path d="M2494 313 c3 -20 -16 -39 -36 -35 -4 1 -5 -4 -3 -11 3 -6 17 -13 32
-14 19 -1 22 1 12 8 -11 7 -11 11 -1 17 9 7 10 15 2 33 -9 21 -10 21 -6 2z"/>
<path d="M280 302 c0 -4 -15 -9 -32 -10 -18 -2 -36 -6 -41 -11 -15 -15 77 0
93 15 12 12 12 14 -3 14 -9 0 -17 -4 -17 -8z"/>
<path d="M1150 301 c0 -4 22 -8 50 -7 65 1 65 16 0 16 -27 0 -50 -4 -50 -9z"/>
<path d="M1413 269 c-18 -5 -32 -15 -30 -21 1 -6 -9 -14 -23 -18 l-25 -6 28
-6 c16 -3 27 -1 27 5 0 7 4 7 12 -1 17 -17 28 -15 28 4 0 8 -4 13 -9 9 -5 -3
-12 -1 -16 5 -6 10 7 14 32 11 6 -1 14 3 18 9 5 8 11 7 21 -1 12 -10 13 -9 8
5 -7 18 -23 19 -71 5z"/>
<path d="M1580 260 c11 -21 25 -23 75 -10 25 6 26 8 7 9 -16 1 -21 5 -16 14 6
9 5 9 -7 0 -9 -8 -20 -9 -29 -3 -27 17 -42 12 -30 -10z"/>
<path d="M1326 261 c-3 -4 -17 -6 -31 -3 -15 2 -25 0 -25 -7 0 -13 14 -14 59
-5 17 4 28 10 25 15 -7 11 -21 12 -28 0z"/>
<path d="M2126 262 c-3 -6 0 -13 6 -16 7 -2 4 -4 -7 -3 -11 1 -20 -2 -20 -8 0
-5 5 -9 12 -7 7 1 9 -5 6 -18 -3 -11 -14 -20 -24 -20 -11 0 -19 -4 -19 -10 0
-19 25 -10 51 18 24 25 25 31 14 51 -7 14 -15 19 -19 13z"/>
<path d="M1518 253 c20 -7 14 -26 -7 -20 -10 2 -25 1 -32 -4 -8 -4 -19 -3 -26
3 -10 8 -13 6 -13 -5 0 -20 19 -26 50 -15 28 11 74 2 65 -12 -4 -6 1 -7 11 -3
12 4 14 8 6 11 -10 3 -10 7 -2 17 13 16 6 21 -35 27 -16 3 -24 3 -17 1z"/>
<path d="M640 240 c0 -5 -8 -7 -17 -3 -12 4 -15 3 -8 -4 12 -13 77 -5 69 8 -7
12 -44 11 -44 -1z"/>
<path d="M1198 241 c21 -13 -43 -22 -73 -11 -20 7 -34 5 -60 -9 -26 -14 -31
-20 -20 -25 8 -3 15 -1 15 4 0 14 37 31 54 24 9 -3 13 -11 9 -16 -4 -7 7 -8
33 -3 21 4 48 7 59 5 53 -6 89 -4 92 6 2 6 -11 9 -36 7 -25 -2 -43 2 -51 12
-7 8 -18 15 -24 15 -7 0 -6 -4 2 -9z"/>
<path d="M1877 222 c-15 -2 -25 -7 -22 -12 3 -4 13 -6 24 -3 11 3 21 -2 24
-11 7 -17 37 -22 37 -6 0 5 -6 7 -14 4 -9 -3 -16 2 -18 13 -2 13 -10 17 -31
15z"/>
<path d="M2633 219 c-21 -21 9 -34 82 -38 38 -1 73 -4 76 -7 4 -2 10 0 14 6 4
6 11 8 16 5 15 -10 10 12 -6 25 -13 11 -14 10 -9 -4 6 -15 -2 -17 -75 -14 -71
3 -79 5 -64 17 16 12 16 12 -6 6 -16 -5 -21 -4 -17 4 9 14 3 14 -11 0z"/>
<path d="M800 195 c0 -14 5 -25 11 -25 6 0 9 7 6 14 -4 10 -1 13 9 9 10 -4 12
0 8 11 -10 25 -34 19 -34 -9z"/>
<path d="M665 201 c-3 -6 -16 -11 -28 -11 -16 0 -18 -3 -8 -9 21 -13 -5 -24
-29 -11 -13 7 -20 7 -20 0 0 -5 5 -10 11 -10 5 0 7 -4 4 -10 -3 -5 1 -10 9
-10 18 0 82 57 74 65 -3 4 -9 2 -13 -4z"/>
<path d="M2496 195 c-8 -9 -18 -15 -21 -15 -3 1 -11 -1 -18 -3 -8 -3 -6 -7 6
-12 10 -4 24 -2 34 6 8 8 26 12 39 11 13 -2 31 2 41 8 14 8 9 9 -21 4 -28 -5
-37 -4 -32 5 11 16 -10 13 -28 -4z"/>
<path d="M2905 200 c-4 -6 -14 -9 -22 -6 -8 3 -12 2 -9 -3 10 -16 82 -17 96
-2 12 12 10 13 -15 7 -18 -5 -31 -3 -35 4 -6 9 -9 9 -15 0z"/>
<path d="M520 186 c-14 -7 -36 -17 -49 -21 -18 -6 -22 -4 -16 6 6 9 2 8 -11
-2 -22 -18 -58 -33 -50 -21 3 5 -16 8 -41 7 -26 -1 -49 -7 -50 -12 -2 -5 2
-10 9 -11 99 -9 103 -10 100 -33 -2 -22 -2 -22 19 -3 18 16 19 19 5 22 -9 2
-16 8 -16 13 0 9 30 13 59 9 7 -1 22 8 33 19 22 24 34 26 41 9 2 -8 8 -9 13
-4 5 5 4 11 -4 13 -6 3 -10 9 -6 14 7 13 -6 11 -36 -5z"/>
<path d="M904 191 c3 -5 -4 -11 -16 -14 -12 -4 -20 -9 -16 -12 3 -3 17 -1 32
4 17 7 26 7 26 0 0 -5 11 -2 24 8 28 21 27 29 -3 14 -13 -7 -22 -8 -26 -1 -3
5 -11 10 -16 10 -6 0 -8 -4 -5 -9z"/>
<path d="M2365 190 c-4 -6 -3 -10 2 -9 20 3 27 -2 13 -11 -18 -11 -8 -23 14
-14 21 8 20 21 -3 34 -14 7 -22 7 -26 0z"/>
<path d="M1660 169 c0 -5 -4 -7 -10 -4 -5 3 -10 1 -10 -5 0 -7 -6 -8 -19 0
-25 13 -41 13 -21 0 9 -6 10 -10 3 -10 -6 0 -15 5 -18 10 -4 6 -11 8 -16 4 -6
-4 -6 -11 2 -20 7 -9 8 -14 1 -14 -23 0 -40 13 -35 26 7 20 -11 17 -38 -5
l-24 -20 31 1 c17 1 36 -2 42 -6 18 -11 122 23 122 40 0 8 -2 14 -5 14 -3 0
-5 -5 -5 -11z"/>
<path d="M2577 164 c-15 -8 -27 -17 -27 -19 0 -10 37 -4 55 8 26 20 5 28 -28
11z"/>
<path d="M1995 160 c-3 -5 -12 -7 -20 -3 -10 3 -15 -1 -15 -12 0 -9 5 -13 11
-10 6 4 22 10 37 14 21 6 23 9 9 14 -9 3 -19 2 -22 -3z"/>
<path d="M1190 152 c0 -14 35 -42 51 -41 8 0 3 5 -11 11 l-25 11 23 4 c12 3
20 9 17 14 -8 11 -55 12 -55 1z"/>
<path d="M1685 152 c-12 -12 -3 -20 29 -24 21 -2 32 0 29 6 -4 5 1 7 11 3 10
-4 23 -7 29 -7 7 0 6 -4 -3 -10 -13 -8 -13 -11 -1 -22 9 -8 11 -9 7 -1 -3 6
-2 14 4 18 6 3 10 -4 11 -17 0 -13 3 -18 5 -11 3 7 12 9 19 7 24 -10 36 5 23
26 -9 14 -14 16 -20 7 -6 -9 -13 -9 -30 2 -24 15 -104 31 -113 23z"/>
<path d="M2765 151 c-4 -7 -23 -9 -48 -6 -53 7 -97 -3 -97 -21 0 -8 -4 -14 -9
-14 -5 0 -8 -7 -7 -15 3 -19 16 -32 16 -16 0 20 37 54 45 41 5 -8 11 -8 21 1
8 6 18 9 21 5 4 -4 1 -11 -7 -16 -8 -6 -10 -10 -4 -10 7 0 15 -11 18 -25 8
-32 22 -32 28 0 6 29 -8 45 -15 18 -4 -14 -5 -13 -6 4 -1 29 6 32 84 37 74 4
101 16 37 16 -22 0 -47 3 -55 6 -8 3 -18 1 -22 -5z"/>
<path d="M1876 135 c-3 -8 -1 -25 4 -37 9 -23 9 -23 10 2 l1 25 11 -25 c6 -15
12 -20 15 -12 3 6 10 10 16 6 7 -3 4 1 -6 9 -11 9 -14 18 -8 21 12 8 51 -14
51 -28 0 -4 7 -3 15 4 8 7 15 17 15 22 0 7 -5 6 -13 -1 -11 -8 -20 -6 -37 9
-17 15 -26 17 -31 8 -6 -9 -11 -9 -22 0 -12 10 -16 9 -21 -3z"/>
<path d="M2350 126 c0 -20 -38 -30 -56 -15 -12 10 -17 10 -23 1 -4 -7 -14 -10
-23 -7 -9 4 -15 0 -15 -10 0 -13 6 -15 26 -10 14 3 35 6 46 6 11 0 29 6 41 14
19 12 25 12 45 -3 20 -13 22 -13 12 -1 -7 9 -10 19 -6 23 4 4 0 4 -10 0 -10
-3 -17 -1 -17 5 0 6 -4 11 -10 11 -5 0 -10 -6 -10 -14z"/>
<path d="M2575 120 c-3 -5 -4 -14 -1 -19 3 -5 -1 -11 -9 -15 -17 -6 -21 -46
-4 -46 5 0 7 5 4 10 -3 6 1 17 10 26 9 9 14 22 11 30 -3 7 3 15 12 17 16 4 16
5 0 6 -9 0 -20 -3 -23 -9z"/>
<path d="M2805 121 c-3 -6 -14 -11 -23 -11 -11 0 -18 -8 -19 -20 -1 -11 0 -20
2 -20 10 0 58 51 53 56 -3 3 -9 1 -13 -5z"/>
<path d="M2881 113 c0 -7 -1 -16 0 -20 0 -4 -8 -10 -18 -14 -14 -6 -13 -8 9
-8 15 -1 30 4 33 9 3 6 2 10 -4 10 -5 0 -12 8 -14 18 -3 9 -5 11 -6 5z"/>
<path d="M261 82 c-30 -26 -30 -28 -10 -29 12 -1 19 1 15 4 -3 3 4 14 16 25
12 10 19 20 16 23 -3 3 -19 -7 -37 -23z"/>
<path d="M2450 90 c-20 -11 -29 -20 -21 -24 6 -4 11 -2 11 3 0 6 7 11 16 11 9
0 12 -5 8 -12 -4 -7 2 -5 13 5 18 16 22 16 33 2 17 -20 32 -19 28 2 -5 26 -50
33 -88 13z"/>
<path d="M1475 91 c-11 -5 -26 -6 -32 -4 -7 3 -13 1 -13 -5 0 -14 79 -9 85 6
5 13 -10 15 -40 3z"/>
<path d="M190 83 c-8 -3 -18 -11 -22 -17 -6 -8 -11 -6 -18 4 -6 9 -10 10 -10
3 0 -6 4 -14 8 -17 13 -8 82 16 76 26 -6 9 -12 9 -34 1z"/>
<path d="M455 80 c-3 -5 3 -10 15 -10 12 0 18 -4 15 -10 -3 -5 -20 -10 -38
-10 -22 0 -28 -3 -20 -11 6 -6 25 -8 45 -4 30 6 34 10 30 31 -4 24 -35 34 -47
14z"/>
<path d="M813 74 c-17 -13 -17 -13 0 -14 9 0 17 5 17 10 0 6 5 10 10 10 6 0
10 -7 10 -15 0 -8 5 -15 11 -15 5 0 7 5 3 11 -3 6 -1 15 6 19 7 5 2 8 -14 8
-14 0 -34 -7 -43 -14z"/>
<path d="M2157 68 c2 -5 -1 -8 -8 -8 -9 0 -10 -3 -3 -10 7 -7 21 -5 42 6 41
20 40 25 -2 21 -19 -1 -32 -5 -29 -9z"/>
<path d="M1609 58 c-1 -2 -3 -13 -4 -26 -2 -21 -1 -22 16 -6 18 16 17 34 -2
34 -5 0 -10 -1 -10 -2z"/>
<path d="M2309 55 c-3 -2 -21 -5 -40 -6 -21 -2 -36 -8 -36 -16 0 -9 8 -10 26
-6 14 4 34 7 43 7 9 0 14 4 12 8 -3 4 0 8 5 8 6 0 11 -4 11 -8 0 -9 44 -32 60
-32 6 0 10 5 10 10 0 6 -11 10 -24 10 -13 0 -29 7 -36 15 -13 15 -23 19 -31
10z"/>
<path d="M355 40 c-11 -5 -40 -9 -65 -10 -31 -1 -39 -3 -25 -9 33 -12 110 -6
107 8 -1 8 9 4 27 -8 16 -12 40 -21 53 -21 18 0 20 2 8 9 -8 6 -17 8 -21 6 -3
-3 -14 4 -24 15 -20 22 -29 23 -60 10z"/>
<path d="M1493 39 c-18 -18 -5 -41 18 -29 10 6 16 17 13 25 -7 18 -16 19 -31
4z"/>
</g>
</svg>
